<?xml version="1.0" encoding="UTF-8" standalone="no"?>
<!-- Created with Inkscape (http://www.inkscape.org/) -->

<svg
   xmlns:dc="http://purl.org/dc/elements/1.1/"
   xmlns:cc="http://creativecommons.org/ns#"
   xmlns:rdf="http://www.w3.org/1999/02/22-rdf-syntax-ns#"
   xmlns:svg="http://www.w3.org/2000/svg"
   xmlns="http://www.w3.org/2000/svg"
   xmlns:sodipodi="http://sodipodi.sourceforge.net/DTD/sodipodi-0.dtd"
   xmlns:inkscape="http://www.inkscape.org/namespaces/inkscape"
   width="93.375"
   height="54.1875"
   id="svg3175"
   version="1.1"
   inkscape:version="0.48.4 r9939"
   sodipodi:docname="New document 5">
  <defs
     id="defs3177" />
  <sodipodi:namedview
     id="base"
     pagecolor="#ffffff"
     bordercolor="#666666"
     borderopacity="1.0"
     inkscape:pageopacity="0.0"
     inkscape:pageshadow="2"
     inkscape:zoom="0.98994949"
     inkscape:cx="78.782888"
     inkscape:cy="-8.0152353"
     inkscape:document-units="px"
     inkscape:current-layer="layer1"
     showgrid="false"
     fit-margin-top="0"
     fit-margin-left="0"
     fit-margin-right="0"
     fit-margin-bottom="0"
     inkscape:window-width="503"
     inkscape:window-height="459"
     inkscape:window-x="1415"
     inkscape:window-y="688"
     inkscape:window-maximized="0" />
  <metadata
     id="metadata3180">
    <rdf:RDF>
      <cc:Work
         rdf:about="">
        <dc:format>image/svg+xml</dc:format>
        <dc:type
           rdf:resource="http://purl.org/dc/dcmitype/StillImage" />
        <dc:title></dc:title>
      </cc:Work>
    </rdf:RDF>
  </metadata>
  <g
     inkscape:label="Layer 1"
     inkscape:groupmode="layer"
     id="layer1"
     transform="translate(-266.29182,-441.14033)">
    <g
       transform="translate(215.51057,-343.14092)"
       id="g4751">
      <path
         id="rect4565-7-0-4"
         d="m 136.30639,788.48971 0,31.25 c 0,6.12126 -4.90999,11.03125 -11.03125,11.03125 l -70.218747,0 c 4.11823,3.75562 9.58656,6.03125 15.625,6.03125 l 48.624997,0 c 12.84843,0 23.1875,-10.33908 23.1875,-23.1875 l 0,-9.34375 c 0,-6.11714 -2.34423,-11.64559 -6.1875,-15.78125 z"
         style="fill:#ff0000;fill-opacity:1;stroke:#ffffff;stroke-width:3.30500007;stroke-linecap:round;stroke-linejoin:miter;stroke-miterlimit:4;stroke-opacity:1"
         inkscape:connector-curvature="0" />
      <g
         transform="translate(7.2012829,28.805127)"
         id="g4609">
        <path
           style="fill:#000000;fill-opacity:1;stroke:none"
           d="m 85.372154,764.78791 c -5.44107,0 -9.8125,4.40268 -9.8125,9.84375 l 0,4 c 0.094,0.0324 0.18848,0.0564 0.28125,0.0937 l 5.15625,2.0625 0,-5.1875 c 0,-0.0527 0.02942,-0.10396 0.03125,-0.15625 -0.0022,-0.0518 5.9e-4,-0.10432 0,-0.15625 -0.0088,-0.77898 0.14905,-1.56471 0.53125,-2.3125 1.30457,-2.55245 4.5053,-3.58521 7.1875,-2.34375 l 6.375,2.9375 c -0.528,-4.9376 -4.66992,-8.78125 -9.75,-8.78125 z m 4.375,17.6875 0,3.46875 c 0,0.3576 -0.0448,0.69897 -0.125,1.03125 -0.01048,0.60369 -0.19176,1.23325 -0.53125,1.8125 -1.23946,2.11483 -4.2954,2.99736 -6.84375,1.96875 l -6.625,-2.6875 c 0.56001,4.90176 4.69349,8.6875 9.75,8.6875 5.44107,0 9.8125,-4.37143 9.8125,-9.8125 l 0,-1.96875 -5.4375,-2.5 z"
           id="rect3904-5-6-5-2-1"
           inkscape:connector-curvature="0" />
      </g>
      <path
         inkscape:connector-curvature="0"
         id="rect3904-5-3-0-1"
         d="m 65.118893,793.58346 c -5.44107,0 -9.8125,4.40268 -9.8125,9.84375 l 0,12.3125 c 0,5.44107 4.37143,9.8125 9.8125,9.8125 5.44107,0 9.8125,-4.37143 9.8125,-9.8125 l 0,-12.3125 c 0,-5.44107 -4.37143,-9.84375 -9.8125,-9.84375 z m 0,6.4375 c 2.42375,0 4.375,1.95125 4.375,4.375 l 0,10.34375 c 0,2.42375 -1.95125,4.375 -4.375,4.375 -2.42375,0 -4.375,-1.95125 -4.375,-4.375 l 0,-10.34375 c 0,-2.42375 1.95125,-4.375 4.375,-4.375 z"
         style="fill:#000000;fill-opacity:1;stroke:none" />
      <path
         inkscape:connector-curvature="0"
         id="rect3904-8-1-8-0-7"
         d="m 118.85468,793.59304 c -5.44107,0 -9.8125,4.40268 -9.8125,9.84375 l 0,12.3125 c 0,5.44107 4.37143,9.8125 9.8125,9.8125 5.44108,0 9.84375,-4.37143 9.84375,-9.8125 l 0,-1.125 -5.4375,0 0,0.125 c 0,2.42375 -1.95125,4.375 -4.375,4.375 -2.42375,0 -4.375,-1.95125 -4.375,-4.375 l 0,-10.34375 c 0,-2.42375 1.95125,-4.375 4.375,-4.375 2.42375,0 4.375,1.95125 4.375,4.375 l 0,1.46875 5.4375,0 0,-2.4375 c 0,-5.44107 -4.40267,-9.84375 -9.84375,-9.84375 z"
         style="fill:#000000;fill-opacity:1;stroke:none" />
    </g>
  </g>
</svg>
