<?xml version="1.0" encoding="UTF-8" standalone="no"?>
<!-- Created with Inkscape (http://www.inkscape.org/) -->

<svg
   xmlns:dc="http://purl.org/dc/elements/1.1/"
   xmlns:cc="http://creativecommons.org/ns#"
   xmlns:rdf="http://www.w3.org/1999/02/22-rdf-syntax-ns#"
   xmlns:svg="http://www.w3.org/2000/svg"
   xmlns="http://www.w3.org/2000/svg"
   xmlns:sodipodi="http://sodipodi.sourceforge.net/DTD/sodipodi-0.dtd"
   xmlns:inkscape="http://www.inkscape.org/namespaces/inkscape"
   width="251.94009"
   height="28.581791"
   id="svg3119"
   version="1.1"
   inkscape:version="0.48.4 r9939"
   sodipodi:docname="New document 2">
  <defs
     id="defs3121" />
  <sodipodi:namedview
     id="base"
     pagecolor="#ffffff"
     bordercolor="#666666"
     borderopacity="1.0"
     inkscape:pageopacity="0.0"
     inkscape:pageshadow="2"
     inkscape:zoom="1.4"
     inkscape:cx="155.14114"
     inkscape:cy="4.829219"
     inkscape:document-units="px"
     inkscape:current-layer="layer1"
     showgrid="false"
     fit-margin-top="0"
     fit-margin-left="0"
     fit-margin-right="0"
     fit-margin-bottom="0"
     inkscape:window-width="503"
     inkscape:window-height="459"
     inkscape:window-x="838"
     inkscape:window-y="631"
     inkscape:window-maximized="0" />
  <metadata
     id="metadata3124">
    <rdf:RDF>
      <cc:Work
         rdf:about="">
        <dc:format>image/svg+xml</dc:format>
        <dc:type
           rdf:resource="http://purl.org/dc/dcmitype/StillImage" />
        <dc:title></dc:title>
      </cc:Work>
    </rdf:RDF>
  </metadata>
  <g
     inkscape:label="Layer 1"
     inkscape:groupmode="layer"
     id="layer1"
     transform="translate(-114.02995,-458.07129)">
    <path
       style="fill:#ba0000;fill-opacity:1;stroke:none"
       d="m 206.52715,458.07149 0,0.0265 0.018,0 c -2e-4,-0.006 0,-0.012 0,-0.0177 l 0,-0.009 -0.018,0 z m 0,0.0265 -86.8303,0 c -3.1428,0 -5.6669,2.54168 -5.6669,5.68452 l 0,17.18598 c 0,3.14285 2.5241,5.68453 5.6669,5.68453 l 2.6569,0 c 0,-0.005 0.01,-0.0124 0.01,-0.0176 l -0.044,0 c -0.2627,-0.87886 -0.3972,-1.81105 -0.3972,-2.84227 0,-3.14386 1.0259,-5.44321 3.0894,-6.91146 2.0787,-1.46815 5.3388,-2.20673 9.7714,-2.20673 l 4.8371,0 0,-0.6885 c 0,-1.35647 -0.503,-2.33464 -1.527,-2.95701 -1.0241,-0.63832 -2.6315,-0.96208 -4.8019,-0.96213 -1.7577,5e-5 -3.3857,0.19792 -4.8989,0.56492 -1.5132,0.3671 -2.9289,0.9077 -4.2281,1.6418 l 0,-6.54073 c 1.7577,-0.44682 3.5319,-0.77403 5.305,-0.99744 1.773,-0.23937 3.5407,-0.35302 5.3138,-0.35308 4.6312,6e-5 7.9791,0.9449 10.0273,2.85992 2.0634,1.89912 3.0894,4.99302 3.0894,9.2859 l 0,10.08032 c 0.011,0.0153 0.025,0.0281 0.035,0.0441 l 8.3943,0 c 3e-4,-0.006 0.01,-0.0116 0.01,-0.0176 l -0.026,0 c -0.6649,-1.59547 -0.9975,-3.53246 -0.9975,-5.85224 l 0,-15.98552 8.2355,0 0,2.61276 c 0,1.41704 0.01,3.20019 -0.01,5.3491 -0.015,2.13339 -0.018,3.57354 -0.018,4.28988 0,2.10222 0.043,3.62035 0.15,4.55468 0.107,0.91874 0.2874,1.57444 0.5473,1.99488 0.3363,0.54505 0.7714,0.98406 1.3064,1.2799 0.5502,0.2959 1.177,0.43252 1.8801,0.43252 1.7119,0 3.0645,-0.65569 4.0427,-1.99488 0.9782,-1.33919 1.4565,-3.2049 1.4565,-5.58743 l 0,-12.93141 8.2178,0 0,21.69652 c 0.012,0.0502 0.024,0.10544 0.026,0.15889 l 8.4473,0 c 0,-0.005 0,-0.0123 0,-0.0176 l -0.1147,0 c -1.5011,-2.34579 -2.2685,-5.21619 -2.2685,-8.62389 0,-3.96809 1.03,-7.20582 3.0629,-9.71842 2.0329,-2.52792 4.6302,-3.79557 7.7942,-3.79557 1.773,0 3.3267,0.38328 4.687,1.10336 1.3757,0.70478 2.638,1.78218 3.7691,3.28361 l 0,-10.78647 z m 16.1885,-0.009 0,0.009 0.026,0 c -0.001,-0.002 0.001,-0.007 0,-0.009 l -0.026,0 z m 0,0.009 -7.9354,0 c -0.001,0.0292 -0.001,0.0613 -0.01,0.0883 l 0,28.44911 -0.053,0 c 0.001,0.005 -0.001,0.0123 0,0.0176 l 8.0148,0 c 3e-4,-0.006 0.01,-0.0116 0.01,-0.0176 l -0.026,0 0,-21.73184 8.2091,0 0,21.73184 -0.062,0 c 2e-4,0.006 0.01,0.0116 0.01,0.0176 l 8.4826,0 0,-0.0353 c 0,-0.0293 0.01,-0.0598 0.01,-0.0883 -1.6189,-2.23679 -2.4362,-5.0557 -2.4362,-8.5003 0,-4.27326 1.2423,-7.62085 3.7338,-10.0362 2.5067,-2.41529 5.9743,-3.62785 10.4069,-3.62785 4.4173,0 7.8601,1.21256 10.3363,3.62785 2.4914,2.41535 3.7426,5.76294 3.7426,10.0362 0,3.47356 -0.8166,6.31642 -2.4627,8.56209 3e-4,0.009 0,0.0178 0,0.0265 l 0,0.0353 97.6167,0 c 3.1429,0 5.6669,-2.54168 5.6669,-5.68453 l 0,-17.18598 c 0,-3.14284 -2.524,-5.68452 -5.6669,-5.68452 l -129.3759,0 0,3.39835 -8.209,0 0,-3.39835 z m 8.209,0 0,-0.009 -0.018,0 c 0,0.004 -0.01,0.005 -0.01,0.009 l 0.026,0 z m 92.6825,2.72751 4.0604,0.0353 -0.053,8.94165 8.9063,0.053 -0.035,4.01624 -8.8887,-0.0441 -0.053,8.93283 -4.0692,-0.0265 0.071,-8.94165 -8.9063,-0.053 0.01,-4.01624 8.9151,0.0441 0.044,-8.94165 z m -13.5758,3.67199 2.8952,2.84226 -6.2671,6.3642 6.3289,6.24945 -2.8246,2.87757 -6.3289,-6.24945 -6.2847,6.3642 -2.8952,-2.85992 6.2847,-6.36419 -6.3465,-6.24945 2.8246,-2.85109 6.3465,6.24062 6.2671,-6.3642 z m 44.0551,0 2.8952,2.84226 -6.2847,6.3642 6.3465,6.24945 -2.8246,2.87757 -6.3466,-6.24945 -6.2671,6.3642 -2.8864,-2.85992 6.2583,-6.36419 -6.3289,-6.24945 2.8246,-2.85109 6.3289,6.24062 6.2848,-6.3642 z m -74.4638,4.80184 3.6544,0 8.9063,0.053 -0.035,4.02507 -8.9063,-0.053 -0.053,8.94165 -3.5661,-0.0353 0,-12.93141 z m -28.555,1.01509 c -1.8189,0 -3.2122,0.64575 -4.1751,1.97723 -0.9477,1.31605 -1.4123,3.24476 -1.4123,5.73749 0,2.49272 0.4646,4.39718 1.4123,5.72866 0.9629,1.31605 2.3562,1.98605 4.1751,1.98605 1.7883,0 3.1568,-0.67 4.1045,-1.98605 0.9476,-1.33148 1.43,-3.23594 1.43,-5.72866 0,-2.49273 -0.4824,-4.42144 -1.43,-5.73749 -0.9477,-1.33148 -2.3162,-1.97723 -4.1045,-1.97723 z m -49.9603,0.15006 c -1.7424,0 -3.0662,0.64616 -3.9985,1.93309 -0.9171,1.28694 -1.3859,3.16257 -1.3859,5.61391 0,2.4513 0.4688,4.31815 1.3859,5.60508 0.9323,1.28699 2.2561,1.92427 3.9985,1.92427 1.7578,0 3.108,-0.63728 4.0251,-1.92427 0.9324,-1.28693 1.3946,-3.15378 1.3947,-5.60508 -1e-4,-2.45134 -0.4623,-4.32697 -1.3947,-5.61391 -0.9171,-1.28693 -2.2673,-1.93309 -4.0251,-1.93309 z m -65.7604,9.3124 c -1.7119,0 -2.995,0.2851 -3.8662,0.89151 -0.8559,0.60647 -1.2799,1.51123 -1.2799,2.69221 0,1.0852 0.3361,1.93738 1.024,2.5598 0.1563,0.13482 0.3367,0.2505 0.5207,0.35308 l 4.7754,0 c 0.553,-0.27982 1.0588,-0.6646 1.5182,-1.16515 1.0547,-1.16497 1.58,-2.61219 1.58,-4.35167 l 0,-0.97978 -4.2722,0 z"
       id="rect4181-0-8-0-3-3-7"
       inkscape:export-filename="/home/srv/tmp/audio_rxtx_logo.png"
       inkscape:export-xdpi="90"
       inkscape:export-ydpi="90"
       inkscape:connector-curvature="0" />
  </g>
</svg>
